<?xml version="1.0" encoding="UTF-8"?>
<svg id="i" xmlns="http://www.w3.org/2000/svg" viewBox="0 0 1080 1080">
  <path d="m388.6,696.5l32.2-37.4c32.2,31.6,76,52.2,123.7,52.2s91.5-27.7,91.5-66.3-32.8-58-75.4-76l-61.2-27.1c-41.9-16.7-90.8-46.4-90.8-108.9s58-112.1,138.5-112.1,99.2,21.3,130.1,52.2l-28.3,34.8c-27.7-24.5-59.9-39.3-103.7-39.3s-81.8,23.2-81.8,61.2,39.3,55.4,75.4,69.6l59.3,26.4c52.2,20.6,93.4,50.2,93.4,112.7s-56.7,120.4-149.4,120.4-115.3-24.5-153.3-62.5Z" style="fill: #fff; stroke: #000; stroke-miterlimit: 10; stroke-width: 8px;"/>
</svg>